<svg width="90" height="90" viewBox="0 0 90 90" fill="none" xmlns="http://www.w3.org/2000/svg">
<path d="M69.1921 83.4479H68.985C60.9473 83.4479 55.689 79.6125 53.1292 74.5329L52.9166 74.1109L53.3258 73.8748L60.2173 69.8987L60.6391 69.6553L60.8935 70.0706C61.7782 71.5147 62.7787 72.7364 64.0375 73.5984C65.2881 74.4548 66.8206 74.9746 68.805 74.9746C70.4738 74.9746 71.7979 74.5566 72.6911 73.8948C73.5745 73.2404 74.0521 72.3399 74.0521 71.2961C74.0521 70.642 73.9234 70.1165 73.6899 69.6674C73.4552 69.2161 73.1008 68.8156 72.6127 68.4319C71.6166 67.6488 70.1438 66.9923 68.1852 66.1299C68.1843 66.1295 68.1833 66.1291 68.1824 66.1287L66.0801 65.2281C66.0796 65.2279 66.0791 65.2277 66.0786 65.2275C63.0013 63.922 60.3845 62.4201 58.5385 60.3331C56.6773 58.229 55.6311 55.566 55.6311 52.0104C55.6311 48.704 56.8942 45.7766 59.1529 43.6786C61.4101 41.582 64.6311 40.3407 68.5061 40.3407C71.2551 40.3407 73.6538 40.8175 75.7313 41.948C77.8121 43.0803 79.5322 44.8473 80.9562 47.3637L81.1894 47.7757L80.7907 48.031L74.2014 52.2514L73.7542 52.5379L73.4952 52.0741C72.7937 50.8177 72.088 49.9878 71.3022 49.4678C70.5245 48.9531 69.6265 48.7143 68.4868 48.7143C67.3594 48.7143 66.4773 49.071 65.882 49.6216C65.2883 50.1707 64.9496 50.9395 64.9496 51.8304C64.9496 52.965 65.2889 53.7164 66.0249 54.3864C66.8016 55.0934 68.0271 55.7171 69.8518 56.5142C69.8524 56.5145 69.8531 56.5147 69.8537 56.515L71.9585 57.4166L69.1921 83.4479ZM69.1921 83.4479L69.1962 83.4437M69.1921 83.4479L69.1962 83.4437M69.1962 83.4437C73.2 83.4082 76.7427 82.3448 79.3085 80.2984C81.9317 78.2062 83.4929 75.117 83.4929 71.1739C83.4929 67.5301 82.4465 64.8474 80.4416 62.6868C78.4583 60.5494 75.5686 58.9587 71.959 57.4168L69.1962 83.4437ZM23.3891 74.7862L23.0021 75.0198L23.1957 75.4284C25.2769 79.8206 29.3582 83.4479 36.3439 83.4479C40.1745 83.4479 43.4719 82.4252 45.8142 80.2176C48.1619 78.0049 49.4793 74.6688 49.4793 70.1904V41.3229V40.8229H48.9793H40.5225H40.0225V41.3229V70.0714C40.0225 72.1369 39.5888 73.3072 38.9358 73.9708C38.2872 74.63 37.3187 74.8943 35.9839 74.8943C34.663 74.8943 33.7553 74.451 33.0119 73.7436C32.2434 73.0122 31.644 71.9946 30.9743 70.8091L30.7211 70.361L30.2806 70.6269L23.3891 74.7862ZM89.5 89.5H0.5V0.5H89.5V89.5Z" stroke="#ECF0F1"/>
</svg>
