<svg width="60" height="90" viewBox="0 0 60 90" fill="none" xmlns="http://www.w3.org/2000/svg">
<mask id="path-1-inside-1_96_15" fill="white">
<path d="M14.6423 0H29.2258V29.1674H14.6424C-4.58979 28.4156 -4.78403 0.789609 14.6423 0ZM14.6423 59.5823H29.2258V30.4149H14.6424C-4.78385 31.2045 -4.58979 58.8305 14.6423 59.5823ZM45.0571 0H30.4733V29.1674H45.0571C64.5481 28.1243 64.3052 0.595371 45.0571 0ZM29.2258 75.4137V60.8298H14.6424C2.74169 60.8298 -4.78385 74.7826 3.4928 84.8042C11.384 94.7375 29.2259 89.7852 29.2259 75.4137M59.6705 44.9986C59.6705 33.7908 47.4541 26.7481 37.7339 32.352C28.0138 37.9559 28.0136 52.0414 37.7339 57.6453C47.4543 63.2492 59.6705 56.2064 59.6705 44.9986Z"/>
</mask>
<path d="M14.6423 0V-1H14.6219L14.6016 -0.999175L14.6423 0ZM29.2258 0H30.2258V-1H29.2258V0ZM29.2258 29.1674V30.1674H30.2258V29.1674H29.2258ZM14.6424 29.1674L14.6034 30.1666L14.6229 30.1674H14.6424V29.1674ZM14.6423 59.5823L14.6032 60.5815L14.6227 60.5823H14.6423V59.5823ZM29.2258 59.5823V60.5823H30.2258V59.5823H29.2258ZM29.2258 30.4149H30.2258V29.4149H29.2258V30.4149ZM14.6424 30.4149V29.4149H14.6221L14.6018 29.4157L14.6424 30.4149ZM45.0571 0L45.0881 -0.999522L45.0726 -1H45.0571V0ZM30.4733 0V-1H29.4733V0H30.4733ZM30.4733 29.1674H29.4733V30.1674H30.4733V29.1674ZM45.0571 29.1674V30.1674H45.0839L45.1106 30.1659L45.0571 29.1674ZM29.2258 60.8298H30.2258V59.8298H29.2258V60.8298ZM3.4928 84.8042L4.2758 84.1822L4.26989 84.1748L4.26385 84.1674L3.4928 84.8042ZM14.6423 1H29.2258V-1H14.6423V1ZM28.2258 0V29.1674H30.2258V0H28.2258ZM29.2258 28.1674H14.6424V30.1674H29.2258V28.1674ZM14.6815 28.1681C5.67023 27.8159 1.16811 21.2302 1.1454 14.5944C1.134 11.2656 2.25616 7.96001 4.48945 5.44944C6.71038 2.95276 10.0792 1.1863 14.6829 0.999175L14.6016 -0.999175C9.49221 -0.791495 5.60042 1.19139 2.99513 4.12015C0.402197 7.03502 -0.867497 10.8309 -0.85459 14.6013C-0.828703 22.1638 4.38241 29.7671 14.6034 30.1666L14.6815 28.1681ZM14.6423 60.5823H29.2258V58.5823H14.6423V60.5823ZM30.2258 59.5823V30.4149H28.2258V59.5823H30.2258ZM29.2258 29.4149H14.6424V31.4149H29.2258V29.4149ZM14.6018 29.4157C9.49238 29.6234 5.60058 31.6063 2.99527 34.535C0.402327 37.4499 -0.867396 41.2458 -0.854524 45.0162C-0.828706 52.5787 4.38231 60.182 14.6032 60.5815L14.6813 58.583C5.67016 58.2308 1.16812 51.6451 1.14546 45.0093C1.1341 41.6805 2.25629 38.3749 4.48959 35.8643C6.71054 33.3677 10.0793 31.6012 14.683 31.4141L14.6018 29.4157ZM45.0571 -1H30.4733V1H45.0571V-1ZM29.4733 0V29.1674H31.4733V0H29.4733ZM30.4733 30.1674H45.0571V28.1674H30.4733V30.1674ZM45.1106 30.1659C55.4481 29.6127 60.6167 21.9699 60.5843 14.4115C60.5681 10.6463 59.2661 6.87223 56.6599 3.99106C54.0413 1.09615 50.1546 -0.842807 45.0881 -0.999522L45.0262 0.999522C49.5837 1.14049 52.9454 2.86592 55.1767 5.33272C57.4205 7.81326 58.5701 11.0982 58.5843 14.4201C58.6126 21.0358 54.1571 27.6789 45.0037 28.1688L45.1106 30.1659ZM30.2258 75.4137V60.8298H28.2258V75.4137H30.2258ZM29.2258 59.8298H14.6424V61.8298H29.2258V59.8298ZM14.6424 59.8298C1.95029 59.8298 -6.12781 74.7257 2.72176 85.441L4.26385 84.1674C-3.4399 74.8395 3.53309 61.8298 14.6424 61.8298V59.8298ZM2.70981 85.4263C6.95667 90.7721 13.8525 92.0751 19.6312 90.1731C25.44 88.2611 30.2259 83.08 30.2259 75.4137H28.2259C28.2259 82.1188 24.0909 86.5996 19.0059 88.2734C13.8908 89.957 7.92011 88.7696 4.2758 84.1822L2.70981 85.4263ZM60.6705 44.9986C60.6705 33.0187 47.6191 25.4987 37.2345 31.4857L38.2334 33.2183C47.2891 27.9975 58.6705 34.5628 58.6705 44.9986H60.6705ZM37.2345 31.4857C26.8469 37.4743 26.8467 52.523 37.2345 58.5117L38.2334 56.779C29.1804 51.5599 29.1806 38.4375 38.2334 33.2183L37.2345 31.4857ZM37.2345 58.5117C47.6193 64.4987 60.6705 56.9784 60.6705 44.9986H58.6705C58.6705 55.4344 47.2892 61.9998 38.2334 56.779L37.2345 58.5117Z" fill="#ECF0F1" mask="url(#path-1-inside-1_96_15)"/>
</svg>
