<svg width="80" height="90" viewBox="0 0 80 90" fill="none" xmlns="http://www.w3.org/2000/svg">
<path d="M64.8604 19.208L64.8613 19.1992L64.8619 19.1903L65.035 16.5617L65.0701 16.0288H64.5361H14.744H14.2078L14.2452 16.5637L14.4291 19.1923L14.429 19.1924L14.4299 19.2022L16.8962 46.6241L16.9372 47.0793H17.3942H39.0589V47.0901H39.5589H51.3078L50.1604 59.0272L39.5697 61.8929L28.9384 59.0171L28.2661 51.4462L28.2256 50.9904H27.768H17.9135H17.3725L17.415 51.5297L18.6482 67.1715L18.6757 67.521L19.0137 67.6142L39.0589 73.141V73.4619L39.6726 73.2572H39.7212H40.2212V73.1055L60.0825 67.625L60.4112 67.5343L60.4468 67.1952L60.6307 65.4428L60.6308 65.4428L60.6315 65.4342L62.9237 39.2466L63.2791 36.6298L63.3561 36.0625H62.7837H26.9932L26.1933 26.8726H63.6599H64.1182L64.158 26.416L64.3412 24.3138L64.3419 24.3066L64.8604 19.208ZM7.60717 80.3751L0.54615 0.5H78.8195L71.6194 80.3753L39.6776 89.4802L7.60717 80.3751Z" stroke="#ECF0F1"/>
</svg>
