<svg width="91" height="90" viewBox="0 0 91 90" fill="none" xmlns="http://www.w3.org/2000/svg">
<mask id="path-1-inside-1_96_66" fill="white">
<path d="M66.5884 0C66.4551 0.0122596 66.3223 0.0292454 66.1902 0.0509253C65.9712 0.0445797 65.7521 0.0509561 65.5338 0.0700223C65.2993 0.106101 65.0674 0.156891 64.8393 0.222091C64.7083 0.234515 64.5779 0.251501 64.4481 0.273016C64.2493 0.35317 64.0552 0.444559 63.8667 0.54674C63.7504 0.596867 63.6357 0.650887 63.523 0.708711C63.0544 0.957845 62.6232 1.27166 62.2421 1.64093L32.1721 34.8881L14.617 20.5017L13.0807 19.1826C12.8962 19.0562 12.7006 18.9466 12.4965 18.8551C12.3748 18.7767 12.2485 18.7058 12.1181 18.6429C11.9793 18.5803 11.8366 18.5266 11.6909 18.4824C11.5416 18.437 11.3894 18.4015 11.2354 18.3763C11.1169 18.3663 10.9979 18.3622 10.8789 18.3642C10.7597 18.3406 10.6393 18.3231 10.5182 18.3119C10.4551 18.3243 10.3924 18.3385 10.3301 18.3543C10.2796 18.3526 10.2292 18.3518 10.1787 18.3522C10.1249 18.3651 10.0713 18.3793 10.0181 18.3947C9.90403 18.3905 9.78979 18.392 9.67581 18.3989C9.5034 18.437 9.3357 18.4939 9.17575 18.5686L2.31922 21.4452C1.93881 21.6103 1.58841 21.8374 1.28233 22.1172C1.23049 22.1575 1.17978 22.1992 1.13026 22.2423C1.0732 22.3138 1.01893 22.3874 0.967581 22.463C0.795737 22.6544 0.644048 22.863 0.514912 23.0854C0.44588 23.1941 0.382837 23.3065 0.326064 23.4221C0.302973 23.4863 0.281745 23.5512 0.262407 23.6166C0.188853 23.8254 0.13394 24.0403 0.0983142 24.2588C0.0590604 24.3787 0.0262421 24.5005 0 24.6238L0 65.4207C0.0263396 65.543 0.0591572 65.6639 0.0983142 65.7828C0.133695 66.0027 0.18861 66.2191 0.262407 66.4293C0.281797 66.4937 0.303024 66.5577 0.326064 66.6209C0.383044 66.7368 0.446323 66.8494 0.515619 66.9583C0.64435 67.1805 0.795562 67.3888 0.966874 67.58C1.01823 67.6557 1.07249 67.7293 1.12955 67.8007C1.17929 67.8441 1.23024 67.8861 1.28233 67.9266C1.58847 68.2061 1.93885 68.433 2.31922 68.5978L9.17575 71.4737C9.56297 71.6278 9.97317 71.7162 10.3895 71.7354C10.5098 71.7392 10.6302 71.7368 10.7502 71.7283C11.0547 71.7184 11.3568 71.6713 11.6499 71.5883C11.772 71.5584 11.8924 71.522 12.0106 71.4794C12.399 71.3341 12.7606 71.1255 13.0807 70.8619L14.617 69.5414L32.1721 55.155L62.2421 88.4021C62.6397 88.7937 63.093 89.1243 63.5873 89.3831C63.7275 89.4431 63.87 89.4974 64.0145 89.5458L64.0188 89.5472C64.3236 89.6971 64.6413 89.8193 64.968 89.9122L65.1392 89.9214C65.5036 89.978 65.8726 89.9988 66.2411 89.9836C66.4741 90.0014 66.7079 90.0047 66.9413 89.9935C67.5418 89.9215 68.1269 89.7536 68.6742 89.4963L87.3277 80.5278C87.4655 80.4611 87.6004 80.3889 87.7323 80.3114L87.8526 80.2364C87.9445 80.18 88.0349 80.1211 88.1235 80.0596L88.2515 79.9641C88.3308 79.9053 88.4087 79.8445 88.4849 79.7816C88.5336 79.7416 88.5817 79.7008 88.6292 79.6592C88.6959 79.5995 88.7612 79.5382 88.8251 79.4753C88.8706 79.4313 88.9154 79.3865 88.9595 79.341C89.0281 79.2687 89.0949 79.1946 89.1596 79.1189L89.2615 79.0014C89.3265 78.9202 89.3892 78.8372 89.4496 78.7525L89.5501 78.616C89.6327 78.4941 89.7106 78.369 89.7835 78.2411L89.8471 78.1209C89.8967 78.0312 89.9439 77.9401 89.9886 77.8478C90.0163 77.788 90.0429 77.7276 90.0685 77.6668C90.1066 77.5784 90.1425 77.489 90.176 77.3987L90.2298 77.2466C90.2592 77.1608 90.2866 77.0742 90.3118 76.9871C90.3326 76.9158 90.3519 76.8441 90.3698 76.772C90.3885 76.6918 90.4055 76.6112 90.4207 76.5302C90.4344 76.4658 90.4469 76.4012 90.4582 76.3364C90.4742 76.2351 90.4874 76.1335 90.4978 76.0315L90.5134 75.9042L90.5148 75.8879C90.5275 75.7343 90.5338 75.5802 90.5339 75.4261V14.6184C90.5339 14.4638 90.5275 14.3092 90.5148 14.1551L90.5021 14.0434C90.4904 13.9231 90.4748 13.8033 90.4554 13.6841L90.4314 13.5638C90.4119 13.4588 90.3895 13.3543 90.3642 13.2505C90.3481 13.187 90.3308 13.1238 90.3125 13.0609C90.2899 12.9826 90.2656 12.9048 90.2397 12.8275C90.217 12.7575 90.1929 12.6879 90.1675 12.6189C90.136 12.5368 90.1025 12.4554 90.0671 12.3749C90.0444 12.3196 90.0208 12.2646 89.9964 12.2101C89.9498 12.1134 89.9005 12.0181 89.8485 11.9243L89.7757 11.7864C89.7023 11.6589 89.624 11.5343 89.5409 11.4129L89.4659 11.3139C89.4031 11.2248 89.3378 11.1375 89.27 11.0522C89.2266 11.0005 89.1822 10.9496 89.137 10.8994C89.0805 10.8335 89.0225 10.7689 88.963 10.7056C88.9183 10.6594 88.8728 10.6139 88.8265 10.5691C88.762 10.5058 88.6959 10.444 88.6285 10.3838C88.5815 10.342 88.5339 10.301 88.4856 10.2607C88.4094 10.1981 88.3316 10.1375 88.2522 10.079L88.1235 9.98349C88.0349 9.92198 87.9445 9.86301 87.8526 9.80666L87.7323 9.73169C87.6004 9.6541 87.4655 9.5819 87.3277 9.51526L68.6742 0.546033C68.1504 0.296002 67.5912 0.128059 67.0163 0.0480962C66.9357 0.0468439 66.855 0.0473155 66.7744 0.0495108C66.7127 0.0319536 66.6507 0.0154476 66.5884 0ZM67.9004 25.8587V64.1843L44.5222 45.0222L67.9004 25.8587ZM11.3167 32.0971L23.0062 45.0222L11.3167 57.9467V32.0985V32.0971Z"/>
</mask>
<path d="M66.5884 0C66.4551 0.0122596 66.3223 0.0292454 66.1902 0.0509253C65.9712 0.0445797 65.7521 0.0509561 65.5338 0.0700223C65.2993 0.106101 65.0674 0.156891 64.8393 0.222091C64.7083 0.234515 64.5779 0.251501 64.4481 0.273016C64.2493 0.35317 64.0552 0.444559 63.8667 0.54674C63.7504 0.596867 63.6357 0.650887 63.523 0.708711C63.0544 0.957845 62.6232 1.27166 62.2421 1.64093L32.1721 34.8881L14.617 20.5017L13.0807 19.1826C12.8962 19.0562 12.7006 18.9466 12.4965 18.8551C12.3748 18.7767 12.2485 18.7058 12.1181 18.6429C11.9793 18.5803 11.8366 18.5266 11.6909 18.4824C11.5416 18.437 11.3894 18.4015 11.2354 18.3763C11.1169 18.3663 10.9979 18.3622 10.8789 18.3642C10.7597 18.3406 10.6393 18.3231 10.5182 18.3119C10.4551 18.3243 10.3924 18.3385 10.3301 18.3543C10.2796 18.3526 10.2292 18.3518 10.1787 18.3522C10.1249 18.3651 10.0713 18.3793 10.0181 18.3947C9.90403 18.3905 9.78979 18.392 9.67581 18.3989C9.5034 18.437 9.3357 18.4939 9.17575 18.5686L2.31922 21.4452C1.93881 21.6103 1.58841 21.8374 1.28233 22.1172C1.23049 22.1575 1.17978 22.1992 1.13026 22.2423C1.0732 22.3138 1.01893 22.3874 0.967581 22.463C0.795737 22.6544 0.644048 22.863 0.514912 23.0854C0.44588 23.1941 0.382837 23.3065 0.326064 23.4221C0.302973 23.4863 0.281745 23.5512 0.262407 23.6166C0.188853 23.8254 0.13394 24.0403 0.0983142 24.2588C0.0590604 24.3787 0.0262421 24.5005 0 24.6238L0 65.4207C0.0263396 65.543 0.0591572 65.6639 0.0983142 65.7828C0.133695 66.0027 0.18861 66.2191 0.262407 66.4293C0.281797 66.4937 0.303024 66.5577 0.326064 66.6209C0.383044 66.7368 0.446323 66.8494 0.515619 66.9583C0.64435 67.1805 0.795562 67.3888 0.966874 67.58C1.01823 67.6557 1.07249 67.7293 1.12955 67.8007C1.17929 67.8441 1.23024 67.8861 1.28233 67.9266C1.58847 68.2061 1.93885 68.433 2.31922 68.5978L9.17575 71.4737C9.56297 71.6278 9.97317 71.7162 10.3895 71.7354C10.5098 71.7392 10.6302 71.7368 10.7502 71.7283C11.0547 71.7184 11.3568 71.6713 11.6499 71.5883C11.772 71.5584 11.8924 71.522 12.0106 71.4794C12.399 71.3341 12.7606 71.1255 13.0807 70.8619L14.617 69.5414L32.1721 55.155L62.2421 88.4021C62.6397 88.7937 63.093 89.1243 63.5873 89.3831C63.7275 89.4431 63.87 89.4974 64.0145 89.5458L64.0188 89.5472C64.3236 89.6971 64.6413 89.8193 64.968 89.9122L65.1392 89.9214C65.5036 89.978 65.8726 89.9988 66.2411 89.9836C66.4741 90.0014 66.7079 90.0047 66.9413 89.9935C67.5418 89.9215 68.1269 89.7536 68.6742 89.4963L87.3277 80.5278C87.4655 80.4611 87.6004 80.3889 87.7323 80.3114L87.8526 80.2364C87.9445 80.18 88.0349 80.1211 88.1235 80.0596L88.2515 79.9641C88.3308 79.9053 88.4087 79.8445 88.4849 79.7816C88.5336 79.7416 88.5817 79.7008 88.6292 79.6592C88.6959 79.5995 88.7612 79.5382 88.8251 79.4753C88.8706 79.4313 88.9154 79.3865 88.9595 79.341C89.0281 79.2687 89.0949 79.1946 89.1596 79.1189L89.2615 79.0014C89.3265 78.9202 89.3892 78.8372 89.4496 78.7525L89.5501 78.616C89.6327 78.4941 89.7106 78.369 89.7835 78.2411L89.8471 78.1209C89.8967 78.0312 89.9439 77.9401 89.9886 77.8478C90.0163 77.788 90.0429 77.7276 90.0685 77.6668C90.1066 77.5784 90.1425 77.489 90.176 77.3987L90.2298 77.2466C90.2592 77.1608 90.2866 77.0742 90.3118 76.9871C90.3326 76.9158 90.3519 76.8441 90.3698 76.772C90.3885 76.6918 90.4055 76.6112 90.4207 76.5302C90.4344 76.4658 90.4469 76.4012 90.4582 76.3364C90.4742 76.2351 90.4874 76.1335 90.4978 76.0315L90.5134 75.9042L90.5148 75.8879C90.5275 75.7343 90.5338 75.5802 90.5339 75.4261V14.6184C90.5339 14.4638 90.5275 14.3092 90.5148 14.1551L90.5021 14.0434C90.4904 13.9231 90.4748 13.8033 90.4554 13.6841L90.4314 13.5638C90.4119 13.4588 90.3895 13.3543 90.3642 13.2505C90.3481 13.187 90.3308 13.1238 90.3125 13.0609C90.2899 12.9826 90.2656 12.9048 90.2397 12.8275C90.217 12.7575 90.1929 12.6879 90.1675 12.6189C90.136 12.5368 90.1025 12.4554 90.0671 12.3749C90.0444 12.3196 90.0208 12.2646 89.9964 12.2101C89.9498 12.1134 89.9005 12.0181 89.8485 11.9243L89.7757 11.7864C89.7023 11.6589 89.624 11.5343 89.5409 11.4129L89.4659 11.3139C89.4031 11.2248 89.3378 11.1375 89.27 11.0522C89.2266 11.0005 89.1822 10.9496 89.137 10.8994C89.0805 10.8335 89.0225 10.7689 88.963 10.7056C88.9183 10.6594 88.8728 10.6139 88.8265 10.5691C88.762 10.5058 88.6959 10.444 88.6285 10.3838C88.5815 10.342 88.5339 10.301 88.4856 10.2607C88.4094 10.1981 88.3316 10.1375 88.2522 10.079L88.1235 9.98349C88.0349 9.92198 87.9445 9.86301 87.8526 9.80666L87.7323 9.73169C87.6004 9.6541 87.4655 9.5819 87.3277 9.51526L68.6742 0.546033C68.1504 0.296002 67.5912 0.128059 67.0163 0.0480962C66.9357 0.0468439 66.855 0.0473155 66.7744 0.0495108C66.7127 0.0319536 66.6507 0.0154476 66.5884 0ZM67.9004 25.8587V64.1843L44.5222 45.0222L67.9004 25.8587ZM11.3167 32.0971L23.0062 45.0222L11.3167 57.9467V32.0985V32.0971Z" stroke="#ECF0F1" stroke-width="2" mask="url(#path-1-inside-1_96_66)"/>
</svg>
