<svg width="60" height="60" viewBox="0 0 60 60" fill="none" xmlns="http://www.w3.org/2000/svg">
<path d="M23.7877 49.9236C23.7925 48.8697 23.7976 47.8157 23.8027 46.7618C23.8319 40.6887 23.8611 34.6158 23.8477 28.5425L23.7877 49.9236ZM23.7877 49.9236H23.7854V50.4236L24.2854 50.4259C24.2854 50.4251 24.2854 50.4244 24.2854 50.4236H31.9096H32.4096V49.9236V35.8338C32.4224 35.1063 32.4608 34.3771 32.7283 33.7427L23.7877 49.9236ZM14.72 11.2957L14.7118 11.2956L14.7036 11.2958C11.7215 11.3599 9.36684 13.4891 9.32915 16.2933L9.32897 16.3062L9.32946 16.3191C9.44789 19.4288 12.0106 21.2748 14.5804 21.3044L14.5804 21.3044H14.5862H14.6521V21.3046L14.6628 21.3043C17.6043 21.2415 20.0912 19.1524 20.0336 16.29H20.0337L20.0334 16.2821C19.9199 13.1203 17.3026 11.3248 14.72 11.2957ZM40.2131 23.2195V23.2194L40.2016 23.2196C38.224 23.2527 36.3389 23.6706 34.7522 24.8029L34.7479 24.8061C34.0345 25.3268 33.4376 25.9226 32.9096 26.5524V24.3567V23.8567H32.4096H23.7854H23.2551L23.2863 24.3861C23.3276 25.0878 23.3477 26.4682 23.3476 28.5425L23.3477 28.5436C23.3611 34.6151 23.3319 40.686 23.3027 46.7591C23.2968 47.9798 23.2909 49.2005 23.2854 50.4213L23.2831 50.9236H23.7854H32.4096H32.9096V50.4236V35.8381C32.9224 35.115 32.9631 34.4821 33.1832 33.9508C34.1055 32.103 35.3879 31.0941 37.1618 31.0714C38.7008 31.1215 39.6356 31.8366 40.2132 32.8312C40.8101 33.8591 41.0334 35.2075 41.0429 36.4726V50.4236V50.9236H41.5429H50.1709H50.6709V50.4236V35.4529H50.671L50.6708 35.4415C50.5945 32.1053 49.9102 28.722 47.6867 26.2422L47.6792 26.2339L47.6714 26.2259C45.5339 24.0469 42.9304 23.2364 40.2131 23.2195ZM10.3382 23.8567H9.83815V24.3567V50.4236V50.9236H10.3382H18.9624H19.4624V50.4236V24.3567V23.8567H18.9624H10.3382ZM0.5 59.5V0.5H59.5V59.5H0.5Z" stroke="#ECF0F1"/>
</svg>
