<svg width="91" height="90" viewBox="0 0 91 90" fill="none" xmlns="http://www.w3.org/2000/svg">
<path d="M58.6072 67.3569V67.4418V67.4421V67.8569V68.3569H54.5108C54.0735 68.3569 53.6528 68.3448 53.2406 68.3331C52.4949 68.3117 51.7772 68.2912 51.0402 68.3442C50.5508 68.3806 50.1201 68.3029 49.7791 68.015C49.4592 67.7449 49.2992 67.353 49.1828 66.9736C48.6429 65.215 48.0858 63.4564 47.528 61.6955L47.5159 61.6572C46.9622 59.9097 46.4079 58.1599 45.87 56.4095C45.7722 56.0915 45.6802 55.9709 45.604 55.9133C45.5313 55.8583 45.393 55.8007 45.0568 55.8047L45.0566 55.8048C41.1074 55.8505 37.1564 55.8462 33.2071 55.7997H33.207C32.8216 55.7951 32.6473 55.8491 32.5483 55.9171C32.4578 55.9791 32.3482 56.1101 32.2436 56.4735L58.6072 67.3569ZM58.6072 67.3569C58.6715 67.3569 58.7283 67.3687 58.7775 67.3866C58.779 67.3872 58.7805 67.3877 58.782 67.3883C58.8708 67.4217 58.934 67.4749 58.9706 67.5138C59.0251 67.5716 59.0523 67.6284 59.0631 67.6527C59.0859 67.704 59.0941 67.7469 59.096 67.7565C59.0966 67.7593 59.0971 67.762 59.0975 67.7646C59.0998 67.777 59.1009 67.7865 59.1015 67.7912C59.1022 67.7978 59.1026 67.8025 59.1028 67.8047L59.103 67.8075C59.103 67.8075 59.1028 67.8033 59.1026 67.7929C59.1021 67.7635 59.1021 67.7256 59.1017 67.6733C59.1014 67.6258 59.1008 67.5688 59.0986 67.5176C59.0975 67.4921 59.0958 67.4626 59.0928 67.4335C59.0908 67.4133 59.0852 67.359 59.0673 67.3005L59.0649 67.2934C55.9415 57.6606 52.8162 47.9876 49.6951 38.3276C48.1613 33.5803 46.6285 28.8362 45.0974 24.1016C44.9728 23.7145 44.7609 23.4243 44.421 23.269C44.128 23.1351 43.7987 23.1361 43.5548 23.1378M58.6072 67.3569L19.2649 68.2919M19.2649 68.2919L19.4697 67.6417C19.7014 66.9061 19.926 66.1883 20.1469 65.4828C20.5779 64.1057 20.9944 62.7752 21.4198 61.4498C22.3378 58.5862 23.2565 55.7227 24.1753 52.8592C27.1984 43.4367 30.2216 34.0139 33.2201 24.5862L33.2202 24.5859C33.3689 24.1194 33.5752 23.7162 33.9442 23.4527C34.3135 23.1891 34.759 23.1274 35.2382 23.1379L35.2383 23.1379C37.3986 23.1857 39.5585 23.1684 41.7271 23.151C42.3356 23.1461 42.9448 23.1412 43.5548 23.1378M19.2649 68.2919H19.9466H19.2649ZM43.5548 23.1378C43.5547 23.1378 43.5546 23.1378 43.5545 23.1378L43.5579 23.6378L43.5551 23.1378C43.555 23.1378 43.5549 23.1378 43.5548 23.1378ZM30.5878 62.0469C30.0913 63.6899 29.5957 65.3298 29.1254 66.9512C29.0043 67.3687 28.8256 67.7505 28.4844 68.0059C28.141 68.2628 27.7213 68.3261 27.2726 68.3146C27.2725 68.3146 27.2724 68.3146 27.2723 68.3146L27.2852 67.8147L30.5878 62.0469ZM30.5878 62.0469C31.1503 60.1859 31.7139 58.3208 32.2435 56.4737L30.5878 62.0469ZM69.2978 68.3569H69.7978V67.8569V35.7141V35.2141H69.2978H60.7265H60.2265V35.7141V67.8569V68.3569H60.7265H69.2978ZM59.7522 27.0454V27.0456C59.7721 29.8657 61.8851 31.8738 64.7615 31.8777C66.2331 31.8801 67.5215 31.3926 68.444 30.5289C69.3689 29.6629 69.8981 28.4437 69.8878 27.0441V27.0438C69.8765 25.6223 69.3545 24.3881 68.4462 23.5099C67.5387 22.6325 66.2747 22.1384 64.8273 22.1399C61.9302 22.143 59.733 24.2236 59.7522 27.0454ZM34.2128 48.0712C35.3694 43.9968 36.5197 40.1217 37.6622 36.2731C38.0946 34.8164 38.5258 33.3635 38.9559 31.9051C39.4039 33.3752 39.8535 34.8419 40.3046 36.3139C41.4791 40.1459 42.6646 44.0137 43.8623 48.0712H34.2128ZM1.35025 0.5H87.9492C88.7384 0.5 89.0689 0.597906 89.2326 0.744524C89.3791 0.875731 89.5121 1.16157 89.5121 1.95642V88.5554C89.5121 89.3064 89.3734 89.3845 89.3348 89.4062L89.3343 89.4065C89.2795 89.4374 89.1712 89.4707 88.9411 89.487C88.7485 89.5006 88.5206 89.5003 88.2283 89.4998C88.1742 89.4997 88.1179 89.4996 88.0592 89.4996H1.24025C1.17944 89.4996 1.12271 89.4997 1.0697 89.4998C0.801527 89.5002 0.628267 89.5004 0.502098 89.4897C0.50112 89.4681 0.500381 89.4425 0.500129 89.4124C0.499402 89.3253 0.501786 89.2222 0.504851 89.0897L0.505497 89.0617C0.508789 88.9187 0.512401 88.7503 0.512401 88.5561V1.84642C0.512401 1.633 0.508844 1.46819 0.505742 1.32449C0.502642 1.18087 0.499998 1.05834 0.501815 0.929447C0.505107 0.696114 0.527502 0.614628 0.54007 0.587808C0.547778 0.583077 0.569778 0.571404 0.616854 0.55827C0.744902 0.522545 0.96476 0.5 1.35025 0.5Z" stroke="#ECF0F1"/>
</svg>
