<svg width="90" height="90" viewBox="0 0 90 90" fill="none" xmlns="http://www.w3.org/2000/svg">
<mask id="path-1-inside-1_100_133" fill="white">
<path d="M88.2964 40.9893L48.9994 1.69799C48.4614 1.15968 47.8226 0.732652 47.1194 0.441305C46.4163 0.149957 45.6627 0 44.9016 0C44.1405 0 43.3868 0.149957 42.6837 0.441305C41.9806 0.732652 41.3417 1.15968 40.8037 1.69799L32.6473 9.85439L42.9975 20.2046C44.2181 19.7878 45.5314 19.7226 46.7873 20.0164C48.0433 20.3102 49.1913 20.9512 50.1005 21.8662C51.0096 22.7812 51.6432 23.9333 51.9289 25.1911C52.2146 26.449 52.141 27.7618 51.7164 28.9797L61.6897 38.9586C63.1652 38.4391 64.7737 38.4375 66.2502 38.9542C67.7268 39.4708 68.9834 40.4749 69.8131 41.801C70.6428 43.1271 70.9962 44.6963 70.8151 46.2501C70.634 47.8039 69.9292 49.2497 68.8167 50.3495C67.6904 51.4826 66.2057 52.1896 64.6161 52.3496C63.0266 52.5097 61.4307 52.1129 60.1012 51.227C58.7717 50.3411 57.791 49.021 57.3267 47.4924C56.8623 45.9637 56.9431 44.3213 57.5552 42.8456L48.2569 33.5417V58.0277C49.6703 58.7273 50.8012 59.8902 51.4611 61.3225C52.121 62.7548 52.2701 64.3701 51.8835 65.899C51.4969 67.4279 50.598 68.7781 49.3365 69.7246C48.0751 70.671 46.5274 71.1566 44.9514 71.1003C43.3754 71.044 41.8662 70.4493 40.6756 69.4152C39.4849 68.3812 38.6846 66.9703 38.408 65.4177C38.1315 63.8651 38.3954 62.2646 39.1558 60.883C39.9162 59.5015 41.1272 58.4222 42.5868 57.8252V33.1142C41.7447 32.7691 40.9792 32.2607 40.3344 31.6184C39.6897 30.9761 39.1784 30.2125 38.8302 29.3717C38.4819 28.5309 38.3036 27.6294 38.3053 26.7193C38.3071 25.8092 38.489 24.9085 38.8405 24.069L28.6422 13.8651L1.69799 40.8093C1.15968 41.3474 0.732652 41.9862 0.441305 42.6893C0.149957 43.3924 0 44.1461 0 44.9072C0 45.6683 0.149957 46.4219 0.441305 47.1251C0.732652 47.8282 1.15968 48.467 1.69799 49.0051L40.9949 88.302C41.533 88.8403 42.1718 89.2674 42.8749 89.5587C43.5781 89.85 44.3317 90 45.0928 90C45.8539 90 46.6076 89.85 47.3107 89.5587C48.0138 89.2674 48.6527 88.8403 49.1907 88.302L88.302 49.1907C88.8403 48.6527 89.2674 48.0138 89.5587 47.3107C89.85 46.6076 90 45.8539 90 45.0928C90 44.3317 89.85 43.5781 89.5587 42.8749C89.2674 42.1718 88.8403 41.533 88.302 40.9949"/>
</mask>
<path d="M48.9994 1.69799L48.2922 2.40492L48.2924 2.40515L48.9994 1.69799ZM44.9016 0V-1V0ZM40.8037 1.69799L41.5108 2.4051L41.511 2.40492L40.8037 1.69799ZM32.6473 9.85439L31.9402 9.14728L31.2331 9.85439L31.9402 10.5615L32.6473 9.85439ZM42.9975 20.2046L42.2904 20.9117L42.7309 21.3522L43.3206 21.1509L42.9975 20.2046ZM51.7164 28.9797L50.7721 28.6505L50.5656 29.2429L51.0091 29.6866L51.7164 28.9797ZM61.6897 38.9586L60.9824 39.6656L61.4276 40.1111L62.0218 39.9019L61.6897 38.9586ZM68.8167 50.3495L68.1136 49.6383L68.1074 49.6445L68.8167 50.3495ZM57.5552 42.8456L58.4789 43.2287L58.735 42.6114L58.2625 42.1387L57.5552 42.8456ZM48.2569 33.5417L48.9643 32.8348L47.2569 31.1264V33.5417H48.2569ZM48.2569 58.0277H47.2569V58.6485L47.8133 58.9239L48.2569 58.0277ZM42.5868 57.8252L42.9654 58.7508L43.5868 58.4966V57.8252H42.5868ZM42.5868 33.1142H43.5868V32.4432L42.966 32.1888L42.5868 33.1142ZM40.3344 31.6184L41.0402 30.91L40.3344 31.6184ZM38.8405 24.069L39.7629 24.4553L40.022 23.8365L39.5478 23.3621L38.8405 24.069ZM28.6422 13.8651L29.3495 13.1582L28.6424 12.4507L27.9351 13.158L28.6422 13.8651ZM1.69799 40.8093L2.40492 41.5166L2.4051 41.5164L1.69799 40.8093ZM0 44.9072H-1H0ZM1.69799 49.0051L2.4051 48.298L2.40492 48.2978L1.69799 49.0051ZM40.9949 88.302L41.7022 87.5951L41.702 87.5949L40.9949 88.302ZM49.1907 88.302L48.4836 87.5949L48.4834 87.5951L49.1907 88.302ZM88.302 49.1907L87.5951 48.4834L87.5949 48.4836L88.302 49.1907ZM89.0034 40.2822L49.7065 0.990835L48.2924 2.40515L87.5893 41.6965L89.0034 40.2822ZM49.7067 0.991061C49.0758 0.359838 48.3267 -0.140894 47.5022 -0.482527L46.7366 1.36514C47.3184 1.6062 47.847 1.95952 48.2922 2.40492L49.7067 0.991061ZM47.5022 -0.482527C46.6777 -0.824161 45.794 -1 44.9016 -1V1C45.5313 1 46.1549 1.12408 46.7366 1.36514L47.5022 -0.482527ZM44.9016 -1C44.0091 -1 43.1254 -0.82416 42.3009 -0.482527L43.0665 1.36514C43.6483 1.12408 44.2718 1 44.9016 1V-1ZM42.3009 -0.482527C41.4764 -0.140894 40.7273 0.359837 40.0964 0.991061L41.511 2.40492C41.9561 1.95952 42.4847 1.6062 43.0665 1.36514L42.3009 -0.482527ZM40.0966 0.990886L31.9402 9.14728L33.3544 10.5615L41.5108 2.4051L40.0966 0.990886ZM31.9402 10.5615L42.2904 20.9117L43.7046 19.4975L33.3544 9.14728L31.9402 10.5615ZM43.3206 21.1509C44.3638 20.7947 45.4862 20.739 46.5596 20.9901L47.0151 19.0427C45.5766 18.7062 44.0725 18.7809 42.6744 19.2582L43.3206 21.1509ZM46.5596 20.9901C47.6329 21.2412 48.6141 21.789 49.3911 22.571L50.8098 21.1614C49.7686 20.1134 48.4536 19.3792 47.0151 19.0427L46.5596 20.9901ZM49.3911 22.571C50.1681 23.353 50.7096 24.3377 50.9537 25.4127L52.9041 24.9696C52.5768 23.529 51.8511 22.2093 50.8098 21.1614L49.3911 22.571ZM50.9537 25.4127C51.1979 26.4876 51.135 27.6096 50.7721 28.6505L52.6606 29.3089C53.147 27.9139 53.2313 26.4103 52.9041 24.9696L50.9537 25.4127ZM51.0091 29.6866L60.9824 39.6656L62.397 38.2517L52.4237 28.2728L51.0091 29.6866ZM62.0218 39.9019C63.283 39.4578 64.6579 39.4565 65.92 39.8981L66.5805 38.0103C64.8895 37.4186 63.0474 37.4204 61.3576 38.0154L62.0218 39.9019ZM65.92 39.8981C67.182 40.3397 68.2561 41.1979 68.9654 42.3314L70.6608 41.2706C69.7106 39.7519 68.2715 38.602 66.5805 38.0103L65.92 39.8981ZM68.9654 42.3314C69.6746 43.465 69.9767 44.8062 69.8219 46.1343L71.8084 46.3659C72.0158 44.5864 71.6111 42.7893 70.6608 41.2706L68.9654 42.3314ZM69.8219 46.1343C69.667 47.4625 69.0646 48.6983 68.1137 49.6383L69.5197 51.0606C70.7938 49.8012 71.601 48.1454 71.8084 46.3659L69.8219 46.1343ZM68.1074 49.6445C67.1445 50.6134 65.8751 51.2178 64.516 51.3547L64.7163 53.3446C66.5364 53.1613 68.2364 52.3519 69.5259 51.0544L68.1074 49.6445ZM64.516 51.3547C63.1569 51.4915 61.7924 51.1522 60.6557 50.3948L59.5467 52.0591C61.069 53.0735 62.8962 53.5278 64.7163 53.3446L64.516 51.3547ZM60.6557 50.3948C59.519 49.6373 58.6805 48.5087 58.2835 47.2017L56.3698 47.783C56.9015 49.5334 58.0244 51.0448 59.5467 52.0591L60.6557 50.3948ZM58.2835 47.2017C57.8865 45.8948 57.9555 44.4905 58.4789 43.2287L56.6315 42.4624C55.9306 44.1521 55.8381 46.0327 56.3698 47.783L58.2835 47.2017ZM58.2625 42.1387L48.9643 32.8348L47.5496 34.2486L56.8479 43.5525L58.2625 42.1387ZM47.2569 33.5417V58.0277H49.2569V33.5417H47.2569ZM47.8133 58.9239C49.0217 59.5221 49.9886 60.5164 50.5528 61.741L52.3693 60.9041C51.6137 59.2641 50.3188 57.9326 48.7006 57.1315L47.8133 58.9239ZM50.5528 61.741C51.1171 62.9656 51.2445 64.3466 50.914 65.6538L52.853 66.1441C53.2956 64.3935 53.1249 62.5441 52.3693 60.9041L50.5528 61.741ZM50.914 65.6538C50.5834 66.961 49.8149 68.1154 48.7364 68.9247L49.9367 70.5244C51.381 69.4407 52.4103 67.8947 52.853 66.1441L50.914 65.6538ZM48.7364 68.9247C47.6579 69.7339 46.3346 70.1491 44.9871 70.101L44.9157 72.0997C46.7202 72.1641 48.4924 71.6082 49.9367 70.5244L48.7364 68.9247ZM44.9871 70.101C43.6396 70.0528 42.3493 69.5443 41.3313 68.6602L40.0199 70.1703C41.3832 71.3543 43.1112 72.0352 44.9157 72.0997L44.9871 70.101ZM41.3313 68.6602C40.3132 67.7761 39.629 66.5698 39.3925 65.2423L37.4235 65.593C37.7402 67.3708 38.6565 68.9863 40.0199 70.1703L41.3313 68.6602ZM39.3925 65.2423C39.1561 63.9149 39.3817 62.5465 40.0319 61.3652L38.2797 60.4009C37.4091 61.9828 37.1069 63.8153 37.4235 65.593L39.3925 65.2423ZM40.0319 61.3652C40.682 60.184 41.7174 59.2612 42.9654 58.7508L42.2083 56.8996C40.537 57.5832 39.1504 58.8189 38.2797 60.4009L40.0319 61.3652ZM43.5868 57.8252V33.1142H41.5868V57.8252H43.5868ZM42.966 32.1888C42.246 31.8938 41.5915 31.4592 41.0402 30.91L39.6287 32.3269C40.3669 33.0623 41.2434 33.6444 42.2077 34.0395L42.966 32.1888ZM41.0402 30.91C40.4889 30.3608 40.0518 29.7079 39.7541 28.989L37.9063 29.7543C38.3051 30.7171 38.8904 31.5914 39.6287 32.3269L41.0402 30.91ZM39.7541 28.989C39.4563 28.2701 39.3038 27.4994 39.3053 26.7213L37.3053 26.7174C37.3033 27.7594 37.5075 28.7916 37.9063 29.7543L39.7541 28.989ZM39.3053 26.7213C39.3068 25.9431 39.4624 25.173 39.7629 24.4553L37.9181 23.6828C37.5156 24.644 37.3074 25.6753 37.3053 26.7174L39.3053 26.7213ZM39.5478 23.3621L29.3495 13.1582L27.9349 14.572L38.1332 24.7759L39.5478 23.3621ZM27.9351 13.158L0.990886 40.1022L2.4051 41.5164L29.3493 14.5722L27.9351 13.158ZM0.991061 40.102C0.359837 40.7329 -0.140894 41.482 -0.482527 42.3065L1.36514 43.0721C1.6062 42.4903 1.95952 41.9618 2.40492 41.5166L0.991061 40.102ZM-0.482527 42.3065C-0.82416 43.131 -1 44.0147 -1 44.9072H1C1 44.2775 1.12408 43.6539 1.36514 43.0721L-0.482527 42.3065ZM-1 44.9072C-1 45.7997 -0.82416 46.6834 -0.482527 47.5079L1.36514 46.7423C1.12408 46.1605 1 45.5369 1 44.9072H-1ZM-0.482527 47.5079C-0.140894 48.3323 0.359838 49.0814 0.991061 49.7124L2.40492 48.2978C1.95952 47.8526 1.6062 47.324 1.36514 46.7423L-0.482527 47.5079ZM0.990886 49.7122L40.2878 89.0091L41.702 87.5949L2.4051 48.298L0.990886 49.7122ZM40.2876 89.0089C40.9186 89.6402 41.6677 90.1409 42.4921 90.4825L43.2577 88.6349C42.676 88.3938 42.1474 88.0405 41.7022 87.5951L40.2876 89.0089ZM42.4921 90.4825C43.3166 90.8242 44.2004 91 45.0928 91V89C44.4631 89 43.8395 88.8759 43.2577 88.6349L42.4921 90.4825ZM45.0928 91C45.9853 91 46.869 90.8242 47.6935 90.4825L46.9279 88.6349C46.3461 88.8759 45.7226 89 45.0928 89V91ZM47.6935 90.4825C48.518 90.1409 49.2671 89.6402 49.898 89.0089L48.4834 87.5951C48.0382 88.0405 47.5097 88.3938 46.9279 88.6349L47.6935 90.4825ZM49.8978 89.0091L89.0091 49.8978L87.5949 48.4836L48.4836 87.5949L49.8978 89.0091ZM89.0089 49.898C89.6402 49.2671 90.1409 48.518 90.4825 47.6935L88.6349 46.9279C88.3938 47.5097 88.0405 48.0382 87.5951 48.4834L89.0089 49.898ZM90.4825 47.6935C90.8242 46.869 91 45.9853 91 45.0928H89C89 45.7226 88.8759 46.3461 88.6349 46.9279L90.4825 47.6935ZM91 45.0928C91 44.2004 90.8242 43.3166 90.4825 42.4921L88.6349 43.2577C88.8759 43.8395 89 44.4631 89 45.0928H91ZM90.4825 42.4921C90.1409 41.6677 89.6402 40.9186 89.0089 40.2877L87.5951 41.7022C88.0405 42.1474 88.3938 42.676 88.6349 43.2577L90.4825 42.4921Z" fill="#ECF0F1" mask="url(#path-1-inside-1_100_133)"/>
</svg>
