<svg width="62" height="60" viewBox="0 0 62 60" fill="none" xmlns="http://www.w3.org/2000/svg">
<path d="M14.3804 52.2358C15.9529 53.5415 18.5195 54.5596 22.5586 53.8285V58.4151C22.5586 58.7446 22.4597 59.0433 22.2691 59.2316C22.0996 59.399 21.778 59.5571 21.1479 59.4647C9.16014 55.4298 0.5 44.097 0.5 30.7448C0.5 22.7234 3.6865 15.0305 9.3585 9.3585C12.167 6.55001 15.5012 4.32219 19.1706 2.80225C22.8401 1.28231 26.773 0.5 30.7448 0.5C34.7166 0.5 38.6495 1.28231 42.319 2.80225C45.9885 4.32219 49.3226 6.55001 52.1311 9.3585C54.9396 12.167 57.1674 15.5012 58.6874 19.1706C60.2073 22.8401 60.9896 26.773 60.9896 30.7448C60.9896 44.0983 52.3584 55.4018 40.368 59.4661C39.7218 59.5723 39.3954 59.4121 39.2244 59.2431C39.0306 59.0517 38.931 58.7458 38.931 58.4151V49.9911C38.931 47.6087 38.2531 45.836 37.3484 44.6771C40.4997 44.239 43.7166 43.3436 46.2257 41.2557C49.0218 38.929 50.86 35.1903 50.86 29.2076C50.86 25.7859 49.7233 23.0028 47.7672 20.7672C48.1734 19.6 48.9442 16.4863 47.3489 12.5704L47.2609 12.3545L47.0388 12.2831L46.8858 12.7591C47.0388 12.2831 47.0383 12.2829 47.0379 12.2828L47.0368 12.2824L47.0345 12.2817L47.0293 12.2801L47.0158 12.2761C47.0055 12.2732 46.9927 12.2697 46.9772 12.2658C46.9463 12.258 46.9049 12.2487 46.853 12.2393C46.7491 12.2203 46.6033 12.2009 46.4143 12.1919C46.0359 12.174 45.4873 12.1981 44.7583 12.3504C43.3325 12.6482 41.2211 13.4355 38.3424 15.3525C35.9282 14.7036 33.3202 14.3805 30.7448 14.3805C28.1694 14.3805 25.5614 14.7036 23.1472 15.3525C20.2686 13.4355 18.1572 12.6482 16.7313 12.3504C16.0024 12.1981 15.4537 12.174 15.0753 12.1919C14.8863 12.2009 14.7405 12.2203 14.6366 12.2393C14.5847 12.2487 14.5434 12.258 14.5124 12.2658C14.5058 12.2675 14.4997 12.2691 14.494 12.2706C14.4864 12.2726 14.4797 12.2744 14.4738 12.2761L14.4604 12.2801L14.4551 12.2817L14.4528 12.2824L14.4518 12.2828C14.4513 12.2829 14.4508 12.2831 14.6038 12.7591L14.4508 12.2831L14.2287 12.3545L14.1407 12.5704C12.5454 16.4863 13.3162 19.5999 13.7225 20.7672C11.7663 23.0028 10.6296 25.7859 10.6296 29.2076C10.6296 35.1746 12.4599 38.92 15.2429 41.2581C17.7456 43.3606 20.9557 44.2697 24.1 44.7097C23.4794 45.5303 22.9712 46.6571 22.7303 48.0974C21.8586 48.4381 20.5128 48.8317 19.0973 48.7089C17.5689 48.5763 15.9207 47.8408 14.6688 45.6536L14.6648 45.6465L14.6473 45.6162C14.6324 45.5908 14.611 45.555 14.5832 45.5103C14.5275 45.421 14.4459 45.2958 14.3386 45.1461C14.1244 44.8474 13.8053 44.4475 13.3832 44.0397C12.5426 43.2277 11.2617 42.3552 9.5658 42.2365L9.55346 42.2356L9.54109 42.2354L9.53089 42.7353C9.54109 42.2354 9.54093 42.2354 9.54076 42.2354L9.54035 42.2354L9.53933 42.2354L9.53647 42.2353L9.52751 42.2352L9.49739 42.2351C9.47216 42.2351 9.43683 42.2354 9.39362 42.2365C9.30765 42.2388 9.18823 42.2444 9.05378 42.258C8.80486 42.283 8.42859 42.3415 8.13236 42.5051C7.97924 42.5897 7.79841 42.7292 7.69769 42.9548C7.58956 43.1971 7.61132 43.4527 7.70851 43.6824C7.80029 43.8993 7.96334 44.1074 8.1726 44.3114C8.38559 44.5191 8.66968 44.7449 9.03415 44.9932L9.06584 45.0148L9.09743 45.0298L9.09772 45.03L9.09785 45.03L9.09801 45.0301L9.09872 45.0305L9.09949 45.0308L9.10638 45.0344C9.11567 45.0393 9.13208 45.0481 9.15497 45.0613C9.20076 45.0876 9.27251 45.1314 9.36532 45.1956C9.55087 45.3242 9.8209 45.5351 10.1361 45.8539C10.7635 46.4883 11.5764 47.5568 12.2574 49.2683L12.2588 49.2727C12.2637 49.2876 12.2706 49.308 12.2797 49.3334C12.2978 49.3843 12.3245 49.4557 12.3612 49.5439C12.4344 49.7203 12.5476 49.9652 12.7107 50.2507C13.0368 50.8211 13.5658 51.5593 14.3804 52.2358Z" stroke="#ECF0F1"/>
</svg>
