<svg width="60" height="60" viewBox="0 0 60 60" fill="none" xmlns="http://www.w3.org/2000/svg">
<path d="M24.2866 16.6539L24.2866 16.654L22.2352 24.8669L22.235 24.8679C22.109 25.3767 22.1163 25.9094 22.2561 26.4146C22.396 26.9198 22.6637 27.3804 23.0334 27.752L23.0343 27.7529L32.2485 36.9671L32.2492 36.9679C32.6213 37.3383 33.0827 37.6065 33.5887 37.7463C34.0948 37.8862 34.6284 37.8931 35.1379 37.7663L35.1383 37.7662L43.3469 35.715C44.236 35.494 45.1636 35.4774 46.0601 35.6664C46.9565 35.8554 47.7984 36.2451 48.5226 36.8062C48.5226 36.8062 48.5227 36.8062 48.5228 36.8063L57.1699 43.5335C60.0417 45.7679 60.3043 50.0108 57.7349 52.5768L57.7346 52.577L53.857 56.4547C51.2014 59.1102 47.2513 60.2593 43.5873 58.9692L43.587 58.9691C33.76 55.5161 24.8385 49.8908 17.4868 42.5122L17.4854 42.5109C10.1073 35.1602 4.48205 26.24 1.0285 16.4144C-0.257939 12.754 0.891161 8.80001 3.54672 6.14446L7.42413 2.26705C8.03018 1.66191 8.75791 1.19248 9.5591 0.889868C10.3603 0.587256 11.2167 0.458371 12.0714 0.511753C12.9262 0.565135 13.7599 0.799566 14.5172 1.19951C15.2745 1.59946 15.9382 2.15578 16.4642 2.83162L16.8588 2.5245L16.4642 2.83163L23.1957 11.4794C24.335 12.9442 24.7369 14.8526 24.2866 16.6539Z" stroke="#ECF0F1"/>
</svg>
