<svg width="81" height="90" viewBox="0 0 81 90" fill="none" xmlns="http://www.w3.org/2000/svg">
<path d="M59.985 66.7304L60.3174 66.6372L60.348 66.2934L64.641 18.0984L64.6895 17.554H64.143H16.866H16.3202L16.3679 18.0977L17.1599 27.1247L17.1999 27.581H17.658H53.1893L52.493 35.608H18.5715H18.0227L18.0737 36.1544L18.9152 45.1814L18.9574 45.635H19.413H51.5862L50.5552 58.4703L40.4955 61.2216L30.4519 58.4731L29.8106 51.9486L29.7663 51.4975H29.313H19.827H19.2779L19.3292 52.0442L20.6657 66.2957L20.6978 66.6378L21.0286 66.7305L40.3651 72.1485L40.4313 72.167H40.5H40.5315H40.6003L40.6665 72.1484L59.985 66.7304ZM7.56895 79.8687L0.546195 0.5H80.4552L73.6372 79.8728L40.5005 89.4793L7.56895 79.8687Z" stroke="#ECF0F1"/>
</svg>
