<svg width="90" height="90" viewBox="0 0 90 90" fill="none" xmlns="http://www.w3.org/2000/svg">
<path d="M71.2325 38.6022L71.9393 38.9233V38.147V31.1667V30.842L71.6426 30.71C71.0101 30.4283 69.0252 29.8196 66.55 29.5287C64.0717 29.2375 61.0343 29.2562 58.3274 30.2891C54.3976 31.7886 52.4882 34.8148 51.9477 37.8994C51.413 40.9514 52.2107 44.106 53.7432 45.928C54.7154 47.0837 56.0322 48.04 57.4009 48.8854C58.233 49.3993 59.1172 49.8909 59.9644 50.3619C60.4953 50.657 61.0116 50.9441 61.4914 51.2235C62.7731 51.9698 63.8252 52.6774 64.4703 53.4324C64.7875 53.8035 64.9906 54.1687 65.0814 54.538C65.1708 54.9017 65.1587 55.2986 65.0008 55.7513C64.6982 56.6186 63.8137 57.2065 62.4832 57.4736C61.1674 57.7379 59.5367 57.6568 57.9898 57.2951C56.5569 56.9601 55.2067 56.3649 54.2082 55.8478C53.7106 55.5901 53.3044 55.3539 53.0234 55.1828C52.8831 55.0972 52.7742 55.0281 52.7012 54.9808C52.6647 54.9572 52.6371 54.939 52.6191 54.927L52.5992 54.9137L52.5947 54.9107L52.594 54.9102L52.5939 54.9102L52.5938 54.9101L51.8125 54.3778V55.3235V62.7142V63.0079L52.069 63.1509L52.3125 62.7142C52.069 63.1509 52.0691 63.1509 52.0692 63.151L52.0695 63.1512L52.0702 63.1516L52.0723 63.1527L52.0794 63.1566L52.1045 63.1702C52.126 63.1819 52.1572 63.1985 52.1974 63.2195C52.2779 63.2614 52.3948 63.3209 52.5444 63.3928C52.8433 63.5367 53.2734 63.731 53.8034 63.9359C54.8609 64.3448 56.3291 64.8007 57.9555 64.9765C60.0186 65.1993 62.3381 65.1005 64.4699 64.6581C66.5931 64.2175 68.5817 63.4252 69.9368 62.2208C72.307 60.1139 73.6647 56.7415 73.3178 53.3545C72.9685 49.9426 70.8951 46.5547 66.4865 44.4275L66.2692 44.8778L66.4865 44.4275C62.9323 42.7128 61.2686 41.647 60.4884 40.83C60.1146 40.4386 59.9618 40.1218 59.8924 39.8287C59.8195 39.5213 59.8283 39.2106 59.8408 38.7705L59.8418 38.7372C59.853 38.3422 60.0649 37.9433 60.5532 37.5949C61.0477 37.2421 61.8047 36.9613 62.8145 36.8413C64.83 36.6019 67.7448 37.0178 71.2325 38.6022ZM27.4656 64.5828H27.9656V64.0828V48.1988C32.7124 48.5204 37.6666 47.7417 41.5007 45.4614C45.5101 43.077 48.2619 39.0655 48.2619 33.0829C48.2619 27.1397 46.0298 23.4046 42.985 21.1462C39.9667 18.9074 36.2091 18.163 33.2031 18.0584C30.2374 17.9552 26.9924 17.994 24.4925 18.0582C23.2418 18.0903 22.1758 18.1289 21.4224 18.1594C21.0457 18.1747 20.747 18.188 20.5423 18.1974C20.44 18.2021 20.3612 18.2059 20.3078 18.2085L20.2472 18.2115L20.2317 18.2123L20.2277 18.2125L20.2266 18.2125L20.2264 18.2126C20.2263 18.2126 20.2263 18.2126 20.2518 18.7119L20.2263 18.2126L19.7518 18.2368V18.7119V64.0828V64.5828H20.2518H27.4656ZM34.8683 26.0856L34.8683 26.0856C37.7528 26.7902 39.6913 29.2781 39.6913 33.1084C39.6913 34.911 39.212 36.3622 38.3877 37.492C37.5617 38.624 36.3668 39.4641 34.8875 40.0039C34.4723 40.1554 33.8108 40.2755 33.0155 40.3648C32.2311 40.4528 31.3543 40.5071 30.5301 40.5401C29.7069 40.573 28.9417 40.5846 28.382 40.5878C28.226 40.5887 28.0861 40.589 27.9655 40.5889V25.7116C28.0359 25.7056 28.1139 25.6993 28.199 25.6929C28.6296 25.6605 29.2398 25.6258 29.9547 25.6167C31.3907 25.5983 33.2233 25.6837 34.8683 26.0856ZM89.5 89.5H0.5V0.5H89.5V89.5Z" stroke="#ECF0F1"/>
</svg>
