<svg width="68" height="69" viewBox="0 0 68 69" fill="none" xmlns="http://www.w3.org/2000/svg">
<path d="M32.579 52.6771L32.579 40.7441L53.2667 40.7441L53.7667 40.7441L53.7667 40.2441L53.7667 28.4651L53.7667 27.9651L53.2667 27.9651L32.579 27.9651L32.579 16.0321L32.579 14.7767L31.7159 15.6884L14.3702 34.0108L14.0448 34.3546L14.3702 34.6983L31.7159 53.0208L32.579 53.9325L32.579 52.6771ZM34 68.2092C15.504 68.2092 0.499999 53.0563 0.499999 34.3546C0.499998 15.6529 15.504 0.499946 34 0.499945C52.496 0.499944 67.5 15.6529 67.5 34.3546C67.5 53.0563 52.496 68.2092 34 68.2092Z" stroke="#ECF0F1"/>
</svg>
