<svg width="60" height="60" viewBox="0 0 49 49" fill="none" xmlns="http://www.w3.org/2000/svg">
<rect x="8" y="13.75" width="33" height="21" fill="white"/>
<path d="M12.135 21.5175V17.505C12.135 17.2675 12.135 17.1725 12.445 17.1725C15.1025 17.1725 17.2625 17.015 18.335 17.6475C19.41 18.2775 19.455 19.1475 19.4725 19.4075C19.49 19.6675 19.4825 20.04 18.9825 20.9475C18.4825 21.855 16.245 21.8725 14.63 21.8725H12.4925C12.23 21.8725 12.135 21.7775 12.135 21.5175ZM19.5 25.7225C19.7476 26.0386 19.9244 26.4042 20.0182 26.7946C20.1121 27.1849 20.1209 27.5909 20.0441 27.985C19.9673 28.3791 19.8066 28.7521 19.573 29.0786C19.3393 29.4051 19.0382 29.6776 18.69 29.8775C18.1785 30.0927 17.6299 30.2057 17.075 30.21H12.4675C12.23 30.21 12.135 30.21 12.135 29.9025V25.1525C12.135 24.915 12.135 24.82 12.445 24.82H15.5075C17.4075 24.82 18.595 24.655 19.5 25.7225Z" fill="#0071E0"/>
<path d="M36.2225 23.5225C36.0951 23.2221 35.9018 22.9543 35.6569 22.7388C35.4119 22.5233 35.1216 22.3656 34.8075 22.2775C34.1796 22.1059 33.5224 22.0696 32.8794 22.1709C32.2364 22.2722 31.6223 22.5087 31.0775 22.865C30.5346 23.4136 30.1838 24.1231 30.0775 24.8875C30.0775 25.155 30.0775 25.205 30.395 25.205H36.32C36.6125 25.205 36.6125 25.205 36.5875 24.8375C36.5595 24.3781 36.4367 23.9299 36.2225 23.5225ZM36.2225 23.5225C36.0951 23.2221 35.8993 22.9543 35.6544 22.7388C35.4094 22.5233 35.1216 22.3656 34.8075 22.2775C34.1796 22.1059 33.5224 22.0696 32.8794 22.1709C32.2364 22.2722 31.6223 22.5087 31.0775 22.865C30.5346 23.4136 30.1813 24.1231 30.075 24.8875C30.075 25.155 30.075 25.205 30.3925 25.205H36.32C36.6125 25.205 36.6125 25.205 36.5875 24.8375C36.5595 24.3781 36.4317 23.9299 36.2175 23.5225M39 0H9.75C7.16414 0 4.68419 1.02723 2.85571 2.85571C1.02723 4.68419 0 7.16414 0 9.75V39C0 41.5859 1.02723 44.0658 2.85571 45.8943C4.68419 47.7228 7.16414 48.75 9.75 48.75H39C41.5859 48.75 44.0658 47.7228 45.8943 45.8943C47.7228 44.0658 48.75 41.5859 48.75 39V9.75C48.75 7.16414 47.7228 4.68419 45.8943 2.85571C44.0658 1.02723 41.5859 0 39 0ZM29.445 15.525C29.445 15.3325 29.445 15.2575 29.665 15.2575H37.5625V17.3075C37.5625 17.3075 37.57 17.4525 37.44 17.4525H29.7875C29.445 17.4525 29.445 17.4525 29.445 17.1125V15.525ZM22.1325 33.4425C19.1325 35.075 14.09 34.4175 8.1175 34.4175V14.21H17.6475C20.085 14.21 22.985 14.82 23.765 17.4025C24.17 18.5304 24.1454 19.7681 23.6958 20.879C23.2461 21.9899 22.403 22.8963 21.3275 23.425C22.3189 23.7919 23.1844 24.4351 23.8216 25.2785C24.4589 26.1219 24.8412 27.1302 24.9232 28.1841C25.0053 29.238 24.7837 30.2934 24.2847 31.2253C23.7857 32.1572 23.0301 32.9266 22.1075 33.4425H22.1325ZM40.2925 27.69H30.5425C30.275 27.69 30.03 27.835 30.0775 28.1775C30.37 29.615 31.0275 31.1275 32.5175 31.3475C33.3043 31.5816 34.1468 31.5457 34.9107 31.2453C35.6746 30.9448 36.316 30.3973 36.7325 29.69C36.7325 29.69 36.855 29.5425 36.9275 29.5425H40.0975C40.0975 29.5425 40.2925 29.5425 40.2425 29.7125C39.9082 30.6591 39.4135 31.5412 38.78 32.32C37.9328 33.1293 36.9104 33.7324 35.7923 34.0826C34.6743 34.4328 33.4905 34.5207 32.333 34.3393C31.1755 34.158 30.0753 33.7123 29.1179 33.0369C28.1605 32.3615 27.3716 31.4746 26.8125 30.445C26.4686 29.7584 26.2542 29.0143 26.18 28.25C25.7452 26.329 26.0775 24.3141 27.1062 22.6345C28.1349 20.9548 29.7787 19.7432 31.6875 19.2575C37.22 18.0625 40.73 21.865 40.73 27.2275C40.7382 27.2902 40.7319 27.3539 40.7115 27.4137C40.6912 27.4736 40.6574 27.528 40.6127 27.5727C40.568 27.6174 40.5136 27.6512 40.4537 27.6715C40.3939 27.6919 40.3302 27.6982 40.2675 27.69H40.2925ZM34.8325 22.2775C34.2052 22.1035 33.5475 22.0677 32.905 22.1725C32.2625 22.2725 31.6875 22.395 31.1025 22.865C30.5175 23.3325 30.2075 24.1225 30.1025 24.8875C30.1025 25.155 30.1025 25.205 30.42 25.205H36.32C36.6125 25.205 36.6125 25.205 36.5875 24.8375C36.5595 24.3781 36.4367 23.9299 36.2225 23.5225C36.0951 23.2221 35.9018 22.9543 35.6569 22.7388C35.4119 22.5233 35.1216 22.3656 34.8075 22.2775H34.8325Z" fill="#0071E0"/>
</svg>
