<svg width="60" height="59" viewBox="0 0 60 59" fill="none" xmlns="http://www.w3.org/2000/svg">
<path d="M10.6252 0H49.3748C55.2502 0 60 4.74984 60 10.6252V47.8748C60 53.7502 55.2502 58.5 49.3748 58.5H10.6252C4.74984 58.5 0 53.7502 0 47.8748V10.6252C0 4.74984 4.74984 0 10.6252 0Z" fill="#001E36"/>
<path d="M21.5 14.8749C20.75 14.8749 20 14.8749 19.2252 14.9002C18.4499 14.925 17.7247 14.925 17.0497 14.9503C16.3747 14.9752 15.7499 14.9752 15.1499 15C14.5747 15.0249 14.1749 15.0249 13.7497 15.0249C13.5749 15.0249 13.4999 15.1247 13.4999 15.3V41.025C13.4999 41.25 13.5997 41.3503 13.7999 41.3503H18.65C18.8249 41.325 18.95 41.175 18.9247 41.0002V32.9752C19.3996 32.9752 19.7497 32.9752 20 33C20.2499 33.0249 20.6497 33.0249 21.2497 33.0249C23.3 33.0249 25.175 32.7999 26.8747 32.175C28.4999 31.575 29.9 30.525 30.8999 29.1249C31.8999 27.7249 32.3999 25.9499 32.3999 23.7999C32.3999 22.6749 32.2002 21.6 31.8252 20.55C31.4278 19.4803 30.8054 18.5084 29.9999 17.7C29.0492 16.7764 27.9048 16.076 26.6497 15.6497C25.2496 15.1247 23.5499 14.8749 21.5 14.8749ZM22.0578 19.7991C22.9485 19.816 23.8157 19.9716 24.6247 20.2997C25.3499 20.5749 25.9499 21.075 26.375 21.7247C26.7738 22.3971 26.9732 23.1689 26.9502 23.9503C26.9502 25.05 26.6999 25.9003 26.1749 26.5252C25.6246 27.15 24.9247 27.6253 24.125 27.8503C23.1997 28.1503 22.2247 28.2999 21.2497 28.2999H19.9246C19.6246 28.2999 19.3002 28.275 18.95 28.2502V19.8502C19.1249 19.8249 19.475 19.8 19.9752 19.8253C20.45 19.8 21.0247 19.8 21.6749 19.8C21.803 19.7969 21.9307 19.7966 22.0578 19.7991ZM43.025 21.0755C41.2499 21.0755 39.7747 21.3502 38.6 21.9502C37.5252 22.4503 36.5999 23.25 35.975 24.2499C35.4252 25.1752 35.1247 26.1999 35.1247 27.2752C35.1034 28.1596 35.3009 29.0356 35.6999 29.8252C36.1674 30.6659 36.8166 31.3919 37.6002 31.95C38.6999 32.7022 39.8933 33.3073 41.15 33.75C42.3749 34.2249 43.1999 34.5999 43.6002 34.9247C44 35.25 44.2002 35.5749 44.2002 35.925C44.2002 36.375 43.925 36.8002 43.5252 36.975C43.0752 37.2 42.4002 37.3252 41.45 37.3252C40.4502 37.3252 39.4499 37.2 38.4997 36.9502C37.4087 36.7065 36.3627 36.2932 35.3999 35.7253C35.3249 35.6752 35.2499 35.6503 35.1749 35.7005C35.0999 35.7502 35.075 35.85 35.075 35.925V40.275C35.0502 40.4752 35.1749 40.65 35.3502 40.7499C36.1609 41.1286 37.0184 41.3977 37.9002 41.55C39.0252 41.775 40.1497 41.8749 41.2996 41.8749C43.0996 41.8749 44.6 41.6002 45.8249 41.0752C46.9499 40.6252 47.9249 39.8503 48.6247 38.85C49.2802 37.8666 49.6203 36.7068 49.5997 35.5252C49.6244 34.6325 49.4269 33.7478 49.025 32.9503C48.5497 32.1 47.8747 31.4002 47.0497 30.8752C45.8428 30.1172 44.5506 29.5046 43.1999 29.0499C42.5967 28.8002 42.0045 28.525 41.4247 28.2249C41.0999 28.05 40.7999 27.825 40.5749 27.5499C40.4249 27.3497 40.325 27.1252 40.325 26.9002C40.325 26.6752 40.4 26.4253 40.5247 26.2252C40.7 25.9753 40.9747 25.8 41.2996 25.725C41.7749 25.6003 42.2999 25.5249 42.7996 25.5497C43.7497 25.5497 44.6746 25.6749 45.5999 25.875C46.4502 26.0499 47.2499 26.325 47.9999 26.7253C48.0997 26.775 48.2249 26.775 48.4499 26.7253C48.4889 26.6964 48.5206 26.6586 48.5424 26.6151C48.5641 26.5716 48.5753 26.5236 48.575 26.475V22.4002C48.575 22.2999 48.5497 22.2 48.5249 22.1002C48.4747 22.0003 48.3749 21.9 48.275 21.8752C47.5855 21.5933 46.863 21.4001 46.1249 21.3C45.0984 21.1505 44.0624 21.0758 43.025 21.0755Z" fill="#31A8FF"/>
</svg>
