<svg width="60" height="60" viewBox="0 0 60 60" fill="none" xmlns="http://www.w3.org/2000/svg">
<path d="M0 0H60V60H0V0Z" fill="#F7DF1E"/>
<path d="M15.7761 50.1403L20.3675 47.3615C21.2535 48.9321 22.0592 50.261 23.9921 50.261C25.8449 50.261 27.0132 49.5363 27.0132 46.7172V27.5458H32.6516V46.7969C32.6516 52.6368 29.2283 55.2951 24.2338 55.2951C19.7232 55.2951 17.105 52.9591 15.7759 50.1398M35.7142 49.5361L40.3051 46.878C41.5138 48.8517 43.0846 50.3015 45.8633 50.3015C48.1998 50.3015 49.6895 49.1334 49.6895 47.5223C49.6895 45.5892 48.159 44.9043 45.5814 43.777L44.1721 43.1723C40.104 41.441 37.4056 39.266 37.4056 34.6746C37.4056 30.4455 40.6276 27.2233 45.6622 27.2233C49.2467 27.2233 51.8244 28.4721 53.6769 31.7343L49.2866 34.5539C48.3198 32.8221 47.2731 32.1375 45.662 32.1375C44.0106 32.1375 42.9634 33.1846 42.9634 34.5539C42.9634 36.2453 44.0106 36.9304 46.427 37.9776L47.8365 38.5816C52.6295 40.6359 55.3278 42.73 55.3278 47.4419C55.3278 52.5171 51.3406 55.2958 45.984 55.2958C40.7483 55.2958 37.3651 52.7988 35.7139 49.5363" fill="black"/>
</svg>
