<svg width="60" height="60" viewBox="0 0 60 60" fill="none" xmlns="http://www.w3.org/2000/svg">
<path d="M45.9375 0H14.0625C6.296 0 0 6.296 0 14.0625V45.9375C0 53.704 6.296 60 14.0625 60H45.9375C53.704 60 60 53.704 60 45.9375V14.0625C60 6.296 53.704 0 45.9375 0Z" fill="#242938"/>
<mask id="mask0_107_208" style="mask-type:luminance" maskUnits="userSpaceOnUse" x="14" y="6" width="32" height="48">
<path d="M14.2969 6.5625H45.5531V53.4375H14.2969V6.5625Z" fill="white"/>
</mask>
<g mask="url(#mask0_107_208)">
<path d="M22.1127 53.4375C26.4252 53.4375 29.9251 49.9376 29.9251 45.6251V37.8124H22.1127C17.8002 37.8124 14.3 41.3126 14.3 45.6251C14.3 49.9376 17.8002 53.4375 22.1127 53.4375Z" fill="#0ACF83"/>
<path d="M14.3 30C14.3 25.6875 17.8002 22.1876 22.1127 22.1876H29.9251V37.8124H22.1127C17.8002 37.8124 14.3 34.3125 14.3 30Z" fill="#A259FF"/>
<path d="M14.3 14.3749C14.3 10.0624 17.8002 6.5625 22.1127 6.5625H29.9251V22.1876H22.1127C17.8002 22.1876 14.3 18.6874 14.3 14.3749Z" fill="#F24E1E"/>
<path d="M29.9254 6.5625H37.7378C42.0503 6.5625 45.5505 10.0624 45.5505 14.3749C45.5505 18.6874 42.0503 22.1876 37.7378 22.1876H29.9254V6.5625Z" fill="#FF7262"/>
<path d="M45.5505 30C45.5505 34.3125 42.0503 37.8124 37.7378 37.8124C33.4253 37.8124 29.9254 34.3125 29.9254 30C29.9254 25.6875 33.4253 22.1876 37.7378 22.1876C42.0503 22.1876 45.5505 25.6875 45.5505 30Z" fill="#1ABCFE"/>
</g>
</svg>
