<svg width="60" height="60" viewBox="0 0 60 60" fill="none" xmlns="http://www.w3.org/2000/svg">
<path d="M8.66883 46.9702C8.31726 47.2705 7.88932 47.4675 7.43254 47.5392C6.97576 47.611 6.50804 47.5547 6.08133 47.3766L1.5375 45.4702C1.08435 45.281 0.696913 44.9627 0.423499 44.5548C0.150084 44.1469 0.0027951 43.6676 0 43.1766L0 16.5141C0.00274919 16.023 0.150017 15.5436 0.423434 15.1357C0.696851 14.7278 1.08432 14.4094 1.5375 14.2203L6.08133 12.3453C6.50801 12.1671 6.97573 12.1108 7.43251 12.1825C7.88928 12.2542 8.31724 12.4511 8.66883 12.7514L9.68742 13.5952C9.48083 13.4467 9.23723 13.3581 8.98349 13.3392C8.72976 13.3204 8.47574 13.372 8.24947 13.4884C8.02321 13.6047 7.83348 13.7813 7.70123 13.9987C7.56898 14.2161 7.49934 14.4657 7.5 14.7202V44.9703C7.49934 45.2247 7.56898 45.4744 7.70123 45.6917C7.83348 45.9091 8.02321 46.0857 8.24947 46.2021C8.47574 46.3185 8.72976 46.3701 8.98349 46.3512C9.23723 46.3324 9.48083 46.2438 9.68742 46.0953L8.66883 46.9702Z" fill="#52218A"/>
<path d="M1.5375 45.4701C1.08435 45.281 0.696913 44.9627 0.423499 44.5548C0.150084 44.1469 0.0027951 43.6676 0 43.1766L0 42.9703C0.00307972 43.2589 0.0925723 43.5399 0.256929 43.7771C0.421285 44.0143 0.652962 44.1969 0.922061 44.3011C1.19116 44.4054 1.48533 44.4266 1.76661 44.3621C2.04789 44.2975 2.30337 44.1501 2.50008 43.939L41.25 1.09522C41.7988 0.549184 42.5031 0.186369 43.2663 0.0565749C44.0295 -0.0732191 44.8141 0.0363704 45.5126 0.370302L57.8749 6.32015C58.5117 6.62631 59.0491 7.10615 59.425 7.70439C59.801 8.30262 60.0003 8.9949 60 9.70147V9.84515C59.9996 9.39692 59.872 8.95801 59.6321 8.5794C59.3921 8.20079 59.0497 7.89802 58.6446 7.70626C58.2395 7.51451 57.7882 7.44163 57.3433 7.4961C56.8984 7.55057 56.4781 7.73014 56.1312 8.01397L9.68742 46.0952L8.66883 46.9701C8.31726 47.2705 7.88932 47.4674 7.43254 47.5392C6.97576 47.6109 6.50804 47.5546 6.08133 47.3766L1.5375 45.4701Z" fill="#6C33AF"/>
<path d="M1.5375 14.2202C1.08432 14.4094 0.696851 14.7278 0.423434 15.1357C0.150017 15.5436 0.00274919 16.023 0 16.514L0 16.7203C0.0030336 16.4317 0.0924929 16.1506 0.256832 15.9134C0.42117 15.6761 0.652845 15.4936 0.921954 15.3893C1.19106 15.285 1.48525 15.2637 1.76655 15.3283C2.04786 15.3928 2.30336 15.5402 2.50008 15.7514L41.25 58.5951C41.7987 59.1412 42.5031 59.5041 43.2663 59.6339C44.0294 59.7637 44.8141 59.6542 45.5126 59.3203L57.8749 53.3702C58.5117 53.064 59.0491 52.5842 59.425 51.986C59.801 51.3877 60.0003 50.6955 60 49.9889V49.8452C59.9996 50.2934 59.872 50.7323 59.6321 51.111C59.3921 51.4896 59.0497 51.7923 58.6446 51.9841C58.2395 52.1758 57.7882 52.2487 57.3433 52.1943C56.8984 52.1398 56.4781 51.9602 56.1312 51.6764L9.68742 13.5951L8.66883 12.7202C8.31412 12.4251 7.88466 12.2338 7.42799 12.1676C6.97131 12.1015 6.50523 12.1629 6.08133 12.3452L1.5375 14.2202Z" fill="#854CC7"/>
<path d="M45.5126 59.3203C44.8141 59.6542 44.0294 59.7638 43.2663 59.6339C42.5031 59.5041 41.7987 59.1412 41.25 58.5951C41.558 58.9009 41.9496 59.1087 42.3754 59.1925C42.8013 59.2762 43.2424 59.2321 43.6432 59.0658C44.0441 58.8994 44.3868 58.6182 44.6282 58.2576C44.8696 57.8969 44.999 57.4729 45 57.0389V2.6639C45.0014 2.22884 44.8738 1.80312 44.6334 1.44057C44.3929 1.07801 44.0503 0.794889 43.649 0.626996C43.2476 0.459102 42.8055 0.413974 42.3785 0.497316C41.9515 0.580658 41.5588 0.788728 41.25 1.09522C41.7988 0.549184 42.5031 0.186369 43.2663 0.0565749C44.0295 -0.0732191 44.8141 0.0363704 45.5126 0.370302L57.8749 6.31405C58.5117 6.6202 59.049 7.10001 59.425 7.69819C59.8009 8.29638 60.0003 8.98862 60 9.69515V49.9952C60.0003 50.7018 59.801 51.3941 59.425 51.9923C59.0491 52.5905 58.5117 53.0704 57.8749 53.3766L45.5126 59.3203Z" fill="#B179F1"/>
<path d="M43.0563 59.5952C43.8826 59.7838 44.7484 59.6869 45.5126 59.3203L57.8749 53.3766C58.5117 53.0704 59.0491 52.5906 59.425 51.9923C59.801 51.3941 60.0003 50.7018 60 49.9952V9.69516C60.0003 8.98863 59.8009 8.2964 59.425 7.69821C59.049 7.10002 58.5117 6.62021 57.8749 6.31406L45.5126 0.370315C44.6379 -0.0502275 43.6342 -0.115253 42.7125 0.188908C42.1613 0.373587 41.6607 0.683862 41.25 1.09524L21.3251 23.1328L9.68742 13.5952L8.66883 12.7202C8.36239 12.4583 7.99717 12.2744 7.6043 12.1841C7.21143 12.0938 6.80255 12.0998 6.4125 12.2016C6.29832 12.2268 6.18726 12.2645 6.08133 12.3141L1.5375 14.2202C1.11226 14.3959 0.74373 14.6855 0.472463 15.0571C0.201197 15.4288 0.0377123 15.868 0 16.3266L0 43.3641C0.0374956 43.8227 0.2009 44.262 0.472196 44.6336C0.743492 45.0052 1.11214 45.2947 1.5375 45.4702L6.08133 47.3452C6.18726 47.3947 6.29832 47.4324 6.4125 47.4577C7.20422 47.6644 8.0468 47.4708 8.66883 46.939L9.68742 46.0952L21.3251 36.5578L41.25 58.5952C41.7467 59.091 42.3725 59.4375 43.0563 59.5952ZM45 17.1452L29.5062 29.8453L45 42.5452V17.1452ZM7.5 21.2639L15.2562 29.8453L7.5 38.4265V21.2639Z" fill="url(#paint0_linear_107_220)" fill-opacity="0.25"/>
<defs>
<linearGradient id="paint0_linear_107_220" x1="3000" y1="0.119378" x2="3000" y2="5968.92" gradientUnits="userSpaceOnUse">
<stop stop-color="white"/>
<stop offset="1" stop-color="white" stop-opacity="0"/>
</linearGradient>
</defs>
</svg>
