<svg width="60" height="69" viewBox="0 0 60 69" fill="none" xmlns="http://www.w3.org/2000/svg">
<path d="M5.46051 61.2418L0 0H60L54.5322 61.2321L29.9635 68.0437L5.46051 61.2418Z" fill="#E44F26"/>
<path d="M29.9999 62.8384L49.8541 57.3342L54.5248 5.00851H29.9999V62.8384Z" fill="#F1662A"/>
<path d="M29.9999 27.7205H20.0607L19.3754 20.0292H29.9999V12.5176H11.1664L11.3462 14.5346L13.1907 35.2321H29.9999V27.7205ZM29.9999 47.2272L29.9659 47.2369L21.6014 44.9794L21.0667 38.9891H13.526L14.5783 50.7801L29.9659 55.0523L29.9999 55.0425V47.2272Z" fill="#EBEBEB"/>
<path d="M29.9733 27.7205V35.2321H39.2224L38.3524 44.9745L29.9733 47.2345V55.0498L45.373 50.7801L45.4848 49.5116L47.2491 29.7376L47.4338 27.7205H29.9733ZM29.9733 12.5176V20.0292H48.1166L48.2673 18.3427L48.61 14.5346L48.7898 12.5176H29.9733Z" fill="white"/>
</svg>
