<svg width="60" height="60" viewBox="0 0 60 60" fill="none" xmlns="http://www.w3.org/2000/svg">
<path d="M55.5738 0.000227214H4.42623C3.26573 -0.0115833 2.14794 0.437462 1.31813 1.24883C0.488316 2.0602 0.0142678 3.16762 0 4.3281V55.6822C0.0168481 56.841 0.49203 57.9459 1.32156 58.7551C2.15109 59.5644 3.26741 60.0121 4.42623 60.0002H55.5738C56.7343 60.0094 57.8514 59.5589 58.6808 58.747C59.5101 57.9351 59.9844 56.828 60 55.6674V4.31334C59.9793 3.15627 59.5027 2.05413 58.6739 1.24648C57.8451 0.43884 56.731 -0.00902934 55.5738 0.000227214Z" fill="#0076B2"/>
<path d="M8.88203 22.4903H17.7886V51.1477H8.88203V22.4903ZM13.3378 8.22803C14.3593 8.22803 15.3579 8.53101 16.2072 9.09865C17.0565 9.66629 17.7184 10.4731 18.1091 11.4169C18.4998 12.3608 18.6018 13.3994 18.4021 14.4012C18.2025 15.403 17.7102 16.3232 16.9875 17.0452C16.2648 17.7671 15.3442 18.2586 14.3422 18.4573C13.3402 18.656 12.3017 18.553 11.3582 18.1614C10.4147 17.7698 9.60855 17.1072 9.04172 16.2573C8.47489 15.4075 8.17286 14.4086 8.17383 13.387C8.17513 12.0183 8.71976 10.7061 9.68805 9.73877C10.6563 8.77141 11.9691 8.22803 13.3378 8.22803ZM23.3755 22.4903H31.9132V26.4247H32.0312C33.2214 24.1723 36.123 21.7969 40.4558 21.7969C49.4755 21.7772 51.1476 27.7133 51.1476 35.41V51.1477H42.241V37.2051C42.241 33.8854 42.182 29.6116 37.6132 29.6116C33.0443 29.6116 32.2673 33.2313 32.2673 36.9887V51.1477H23.3755V22.4903Z" fill="white"/>
</svg>
