<svg width="60" height="69" viewBox="0 0 60 69" fill="none" xmlns="http://www.w3.org/2000/svg">
<path d="M5.45852 61.2468L0 0H60L54.5342 61.237L29.9635 68.0493L5.45852 61.2468Z" fill="#1572B6"/>
<path d="M30 62.8435L49.8558 57.3388L54.5269 5.00893H30V62.8435Z" fill="#33A9DC"/>
<path d="M30 27.1978H39.9401L40.6254 19.5058H30V11.9937H48.8351L48.6552 14.0084L46.8106 34.71H30V27.1978Z" fill="white"/>
<path d="M30.0461 46.7061L30.0121 46.7158L21.6469 44.4556L21.1122 38.4648H13.5709L14.6233 50.2592L30.0097 54.5317L30.0461 54.522V46.7061Z" fill="#EBEBEB"/>
<path d="M39.301 34.3916L38.3969 44.4508L30.0195 46.711V54.5269L45.4181 50.2592L45.5323 48.9906L46.8374 34.3916H39.301Z" fill="white"/>
<path d="M30.0269 11.9937V19.5058H11.8821L11.7314 17.8168L11.3887 14.0084L11.2089 11.9937H30.0269ZM30.0002 27.1978V34.71H21.7395L21.5888 33.0209L21.2486 29.2126L21.0687 27.1978H30.0002Z" fill="#EBEBEB"/>
</svg>
