<svg width="60" height="60" viewBox="0 0 60 60" fill="none" xmlns="http://www.w3.org/2000/svg">
<path d="M58.8681 27.3272L32.6714 1.13146C31.1637 -0.377152 28.7169 -0.377152 27.2068 1.13146L21.7675 6.57176L28.6679 13.4722C30.2721 12.9308 32.1105 13.294 33.3886 14.572C34.6734 15.8582 35.0336 17.7124 34.479 19.3217L41.1294 25.9726C42.7383 25.418 44.5953 25.7763 45.8796 27.0634C47.6762 28.8587 47.6762 31.7689 45.8796 33.5651C45.4526 33.9923 44.9457 34.3311 44.3877 34.5623C43.8298 34.7935 43.2317 34.9125 42.6278 34.9125C42.0238 34.9125 41.4258 34.7935 40.8678 34.5623C40.3099 34.3311 39.803 33.9923 39.376 33.5651C38.7347 32.9231 38.2975 32.1059 38.1195 31.2161C37.9415 30.3263 38.0305 29.4037 38.3755 28.5645L32.1738 22.3627L32.1728 38.6851C32.6228 38.9066 33.0336 39.2001 33.3891 39.5539C35.1848 41.3491 35.1848 44.2584 33.3891 46.0575C31.5929 47.8527 28.6817 47.8527 26.8874 46.0575C25.0918 44.2589 25.0918 41.3496 26.8874 39.5539C27.3181 39.1235 27.8297 38.7826 28.3927 38.551V22.0775C27.829 21.8469 27.3172 21.5057 26.8874 21.0742C25.5271 19.7148 25.1996 17.7185 25.8974 16.0474L19.0944 9.24438L1.13179 27.206C0.407105 27.931 0 28.914 0 29.939C0 30.964 0.407105 31.9471 1.13179 32.672L27.329 58.8678C28.8376 60.3764 31.2835 60.3764 32.7945 58.8678L58.8686 32.7937C59.5931 32.0686 60.0001 31.0854 60 30.0604C59.9999 29.0353 59.5928 28.0522 58.8681 27.3272Z" fill="#F34F29"/>
</svg>
